<?xml version="1.0" encoding="UTF-8" standalone="no"?>
<svg width="210px" height="210px" viewBox="0 0 210 210" version="1.1" xmlns="http://www.w3.org/2000/svg" xmlns:xlink="http://www.w3.org/1999/xlink" xmlns:sketch="http://www.bohemiancoding.com/sketch/ns">
    <!-- Generator: Sketch 3.3.2 (12043) - http://www.bohemiancoding.com/sketch -->
    <title>UPT logotype3A</title>
    <desc>Created with Sketch.</desc>
    <defs></defs>
    <g id="Page-1" stroke="none" stroke-width="1" fill="none" fill-rule="evenodd" sketch:type="MSPage">
        <g id="UPT-logotype3A" sketch:type="MSLayerGroup" transform="translate(-18.000000, -21.000000)">
            <path d="M123,228 C66.8,228 21,182.2 21,126 C21,69.8 66.8,24 123,24 C179.2,24 225,69.8 225,126 C225,182.2 179.3,228 123,228 L123,228 Z" id="Shape" stroke="#3D325A" stroke-width="6" fill="#F1F2F2" sketch:type="MSShapeGroup"></path>
            <circle id="Oval" stroke="#3D325A" stroke-width="3" fill="#FFFFFF" sketch:type="MSShapeGroup" cx="123" cy="126" r="92"></circle>
            <g id="Group" transform="translate(70.000000, 172.000000)" fill="#3D325A" sketch:type="MSShapeGroup">
                <path d="M11.3,6 L6.2,2.2 L7.6,0.4 L19.9,9.7 L18.5,11.5 L13.4,7.7 L2.2,22.5 L0,20.9 L11.3,6 L11.3,6 Z" id="Shape"></path>
                <path d="M35.8,27 C33.3,33.7 27.9,35.8 22.9,33.9 C17.7,32 15.6,26.6 17.8,20.7 C20.1,14.5 25.5,11.8 30.7,13.8 C36,15.8 37.9,21.2 35.8,27 L35.8,27 Z M20.5,21.7 C18.9,25.9 19.8,30.5 23.8,32 C27.8,33.5 31.4,30.6 33.1,26.2 C34.5,22.3 34,17.5 29.8,15.9 C25.6,14.3 22.1,17.4 20.5,21.7 L20.5,21.7 Z" id="Shape"></path>
                <path d="M47.8,39.2 L42,18.4 L44.9,18.3 L47.6,28.8 C48.3,31.4 48.9,34 49.3,36 L49.4,36 C49.7,33.9 50.3,31.4 50.9,28.7 L53.4,18.1 L56.2,18 L59,28.5 C59.6,31 60.3,33.4 60.6,35.6 L60.7,35.6 C61.1,33.3 61.6,31 62.2,28.3 L64.7,17.7 L67.5,17.6 L62.1,38.6 L59.3,38.7 L56.4,27.9 C55.7,25.3 55.2,23.2 54.9,21.1 L54.8,21.1 C54.5,23.2 54.1,25.2 53.4,28 L50.7,39 L47.8,39.2 L47.8,39.2 Z" id="Shape"></path>
                <path d="M85.1,22.4 L77.5,25.3 L80.2,32.3 L88.7,29.1 L89.5,31.2 L78.5,35.3 L71.1,15.7 L81.7,11.7 L82.5,13.8 L74.5,16.8 L76.8,23 L84.4,20.1 L85.1,22.4 L85.1,22.4 Z" id="Shape"></path>
                <path d="M86.7,9.4 C87.6,8.4 89.1,7.1 90.6,6 C92.9,4.3 94.7,3.6 96.5,3.8 C97.9,3.9 99.2,4.7 100.2,6 C101.8,8.2 101.5,10.7 100.2,12.6 L100.3,12.7 C101.9,12.2 103.6,12.8 105.3,14.3 C107.6,16.3 109.2,17.6 110,18 L107.7,19.6 C107.1,19.3 105.6,18.1 103.6,16.4 C101.4,14.4 99.9,14.2 97.8,15.6 L95.7,17.1 L101,24.4 L98.8,26 L86.7,9.4 L86.7,9.4 Z M94.5,15.5 L96.7,13.9 C99,12.2 99.6,9.8 98.2,7.9 C96.6,5.7 94.3,5.9 92,7.6 C90.9,8.4 90.3,9 90,9.4 L94.5,15.5 L94.5,15.5 Z" id="Shape"></path>
            </g>
            <g id="Group" transform="translate(38.000000, 41.000000)" fill="#3D325A" sketch:type="MSShapeGroup">
                <path d="M2.7,103.6 L14.5,101.6 C19,100.9 20.5,98.6 20.1,95.9 C19.6,92.9 17.3,91.4 12.9,92.1 L1.1,94.1 L0.7,91.5 L12.3,89.6 C18.4,88.6 21.5,91.4 22.2,95.7 C22.9,99.8 21.1,103.3 14.9,104.3 L3.1,106.3 L2.7,103.6 L2.7,103.6 Z" id="Shape"></path>
                <path d="M20.6,81.9 L0.7,78.5 L1.2,75.7 L12.4,71 C15,69.9 17.3,69.1 19.5,68.5 L19.5,68.4 C16.8,68.2 14.4,67.8 11.3,67.3 L3,65.9 L3.4,63.5 L23.3,66.9 L22.9,69.5 L11.7,74.1 C9.2,75.1 6.7,76.1 4.4,76.7 L4.4,76.8 C6.9,77.1 9.3,77.4 12.7,78 L21.2,79.4 L20.6,81.9 L20.6,81.9 Z" id="Shape"></path>
                <path d="M8.2,50.4 L26.8,58.4 L25.8,60.8 L7.2,52.8 L8.2,50.4 L8.2,50.4 Z" id="Shape"></path>
                <path d="M32.3,48.8 L12.1,42.3 L13.8,40 L23.7,43.3 C26.4,44.2 28.9,45 31.1,46 L31.1,46 C29.5,44.2 28,42 26.4,39.7 L20.2,31 L21.8,28.7 L34,46.4 L32.3,48.8 L32.3,48.8 Z" id="Shape"></path>
                <path d="M43.8,24 L37.6,28.9 L42.1,34.6 L49,29.2 L50.4,30.9 L41.5,37.9 L28.9,22.1 L37.5,15.3 L38.9,17 L32.4,22.1 L36.4,27.1 L42.6,22.2 L43.8,24 L43.8,24 Z" id="Shape"></path>
                <path d="M47.3,9.9 C48.4,9.1 50.1,8.3 51.8,7.6 C54.4,6.5 56.2,6.3 57.8,6.9 C59.1,7.3 60.1,8.4 60.7,9.8 C61.7,12.3 60.9,14.5 59.2,16 L59.2,16.1 C60.8,16 62.3,17 63.5,18.7 C65.2,21 66.4,22.7 67.1,23.2 L64.6,24.2 C64.1,23.8 63,22.4 61.5,20.3 C59.9,18 58.5,17.4 56.2,18.2 L54,19.2 L57.4,27.3 L55,28.3 L47.3,9.9 L47.3,9.9 Z M53.2,17.3 L55.7,16.3 C58.3,15.2 59.3,13.1 58.4,11 C57.4,8.6 55.2,8.3 52.7,9.3 C51.5,9.8 50.8,10.2 50.4,10.5 L53.2,17.3 L53.2,17.3 Z" id="Shape"></path>
                <path d="M71.2,19.1 C72.5,19.7 74.2,20 76,19.8 C78.6,19.5 80,17.9 79.8,15.8 C79.6,13.9 78.4,13 75.5,12.3 C72.1,11.6 69.8,10.1 69.5,7.3 C69.1,4.2 71.4,1.5 75.3,1 C77.4,0.7 78.9,1 79.9,1.4 L79.5,3.6 C78.8,3.3 77.4,2.9 75.6,3.1 C72.9,3.4 72,5.2 72.2,6.6 C72.4,8.5 73.8,9.2 76.7,10 C80.3,10.9 82.2,12.3 82.6,15.2 C83,18.3 81,21.3 76.3,21.9 C74.4,22.1 72.2,21.8 71,21.3 L71.2,19.1 L71.2,19.1 Z" id="Shape"></path>
                <path d="M93.1,1.2 L91.5,21.4 L88.9,21.2 L90.5,1 L93.1,1.2 L93.1,1.2 Z" id="Shape"></path>
                <path d="M107,6.1 L101.1,4.3 L101.7,2.2 L116.1,6.5 L115.5,8.6 L109.6,6.8 L104.5,24.1 L102,23.3 L107,6.1 L107,6.1 Z" id="Shape"></path>
                <path d="M118.6,30.6 L123.2,23.4 L124.1,10.2 L126.6,11.8 L126,18 C125.8,19.7 125.7,21.1 125.4,22.6 L125.4,22.6 C126.6,21.8 127.9,21.1 129.4,20.2 L134.9,17.1 L137.4,18.7 L125.4,24.8 L120.7,32 L118.6,30.6 L118.6,30.6 Z" id="Shape"></path>
                <path d="M152.2,34.4 C153.1,35.3 154.1,36.6 155.3,38.4 C156.7,40.6 157.2,42.5 157,44.1 C156.8,45.6 155.9,46.9 154.4,47.9 C152.9,48.9 151.4,49.2 149.9,49 C147.9,48.6 146.1,47.2 144.7,45 C144.3,44.3 143.9,43.7 143.7,43.1 L136.9,47.5 L135.5,45.3 L152.2,34.4 L152.2,34.4 Z M145.5,41.9 C145.7,42.5 146,43.1 146.5,43.8 C148.2,46.4 150.6,47.2 152.9,45.7 C155.1,44.2 155.2,42 153.6,39.5 C153,38.5 152.4,37.9 152.1,37.6 L145.5,41.9 L145.5,41.9 Z" id="Shape"></path>
                <path d="M150.6,59.5 L143.9,59.5 L143,56.9 L164.4,57 L165.4,60 L148.4,72.9 L147.5,70.3 L152.8,66.2 L150.6,59.5 L150.6,59.5 Z M154.7,65.1 L159.6,61.4 C160.7,60.6 161.8,59.9 162.8,59.2 L162.8,59.1 C161.6,59.2 160.3,59.3 159,59.3 L152.8,59.3 L154.7,65.1 L154.7,65.1 Z" id="Shape"></path>
                <path d="M168.8,77.4 C169.1,78.7 169.3,80.6 169.3,82.4 C169.4,85.2 168.9,87 167.8,88.3 C166.9,89.3 165.6,89.9 164,90 C161.3,90.1 159.5,88.4 158.8,86.3 L158.7,86.3 C158.2,87.9 156.8,88.8 154.7,89.4 C151.9,90.1 150,90.7 149.2,91.1 L149.1,88.4 C149.7,88.1 151.4,87.6 153.9,86.9 C156.7,86.2 157.7,85.1 157.7,82.8 L157.6,80.3 L148.8,80.5 L148.7,77.9 L168.8,77.4 L168.8,77.4 Z M159.7,80.2 L159.8,82.9 C159.9,85.7 161.4,87.4 163.7,87.4 C166.3,87.3 167.4,85.4 167.4,82.7 C167.4,81.4 167.2,80.5 167.1,80.1 L159.7,80.2 L159.7,80.2 Z" id="Shape"></path>
                <path d="M167.9,101 L167.2,103.5 L157.8,101 L157.8,101.1 C158.4,101.8 159,102.5 159.5,103.2 L165.2,111.1 L164.4,114.2 L158,105 L144.7,109.6 L145.5,106.6 L156.8,102.7 L155.1,100.3 L147.6,98.3 L148.3,95.8 L167.9,101 L167.9,101 Z" id="Shape"></path>
            </g>
            <path d="M174.3,161.6 C174.3,164.9 171.9,166.5 167.1,166.5 C161,166.5 154.4,164.6 147.4,160.8 C139.8,156.7 133.1,151 127.4,143.7 L125.5,142.3 C125.4,148.9 125.2,155.5 125,162.2 C124.9,166.6 124.3,168.8 123.4,168.8 C122.1,168.8 121.2,166.6 120.6,162.2 C120.4,160.6 119.9,154.1 119.3,142.6 C119.2,141.4 119,140.7 118.5,140.7 C118.3,140.7 117.8,141.4 117.1,142.8 C115.9,144.9 114.4,147.1 112.4,149.4 C107.8,154.6 102.6,158.6 96.8,161.5 C91,164.3 85.4,165.8 79.9,165.8 C77.8,165.8 76.1,165.1 74.6,163.7 C73.1,162.3 72.4,160.9 72.4,159.3 C72.4,157.4 73.5,156 75.6,155 C79.6,152.9 82,151.7 82.6,151.2 C82.4,151.1 80,149.6 75.4,146.7 C73.1,145.3 71.9,143.6 71.9,141.7 C71.9,140.4 72.5,139.2 73.6,138 C74.7,136.9 75.9,136.3 77.3,136.3 C76.4,136.3 78.8,136.9 84.6,138.1 C90.4,139.3 96.8,139.9 103.8,139.9 C106.4,139.9 108.6,139.5 110.3,138.8 C112,138 112.9,137.2 112.9,136.2 C112.9,135.2 112.4,134.5 111.4,133.8 C110.2,133.5 109,133.3 107.8,133 C104.9,132.2 102,130.8 98.9,128.9 C93.2,125.3 88.6,120.5 85,114.7 C81.6,109.1 80,103.7 80,98.4 C80,95.2 81.3,93.6 84,93.6 C85.5,93.6 86.6,94.4 87.3,96 C88,97.6 88.9,98.4 89.9,98.4 C91.1,98.4 91.8,97 91.8,94.3 L91.8,91.3 C91.8,86.6 93.3,84.2 96.4,84.2 C97.9,84.2 99.2,84.7 100.2,85.8 C101.2,86.9 101.7,88.2 101.7,89.8 C101.7,90.1 101.6,90.8 101.4,92.1 C101.2,93.4 101.1,94.5 101.1,95.5 C101.1,106.1 102.7,114.7 106,121.1 C109.1,127.3 113,130.5 117.8,130.5 C119.1,130.5 119.8,130.1 119.8,129.3 C119.8,129 119.3,128.2 118.3,127.1 C117,125.7 116,124.3 115.2,123.1 C113.3,119.9 111.6,115.2 110.2,108.9 C108.6,101.9 107.7,95 107.7,88.2 C107.7,85.6 108.2,83.4 109.1,81.6 C110.1,79.8 111.1,78.9 112.1,78.9 C113.4,78.9 114.8,79.9 116.4,82 C117.9,84.1 119,85.2 119.5,85.4 C119.7,84.6 119.8,83.7 119.8,82.7 C119.8,81.4 119.7,79.9 119.5,78.3 C119.3,76.7 119.2,75.7 119.2,75.3 C119.2,73.9 119.6,72.6 120.4,71.5 C121.2,70.4 122.1,69.9 123,69.9 C125.7,69.9 127,71.9 127,75.9 C127,76.7 126.9,78 126.7,79.6 C126.5,81.2 126.4,82.5 126.4,83.3 C126.4,83.5 126.5,84.1 126.6,85 C127.4,84.6 128.5,83.5 129.9,81.6 C131.1,80 132.2,79.2 133.1,79.2 C135.3,79.2 136.7,82 137.2,87.7 C137.4,89.6 137.5,93.5 137.5,99.4 C137.5,108.4 134.1,118.6 127.3,130 C127.5,130.5 128.1,130.8 128.9,130.8 C133.4,130.8 136.8,128.4 139.1,123.6 C141.4,118.8 143,111.4 143.7,101.4 C143.8,99.5 143.9,97.9 143.9,96.8 L143.9,94.7 C143.8,93.8 143.8,93.2 143.8,92.7 C143.8,86.3 145.7,83.1 149.6,83.1 C151.1,83.1 152.2,84 152.9,85.7 C153.3,86.9 153.7,89.4 154.1,93.2 C154.6,97.8 155,100.1 155.3,100.1 C155.8,100.1 156.2,99.5 156.6,98.2 C157.1,96.6 157.7,95 158.2,93.4 C158.8,92.2 159.8,91.5 161.2,91.5 C162.5,91.5 163.7,92.2 164.6,93.5 C165.6,94.8 166.1,96.4 166.1,98.2 C166.1,102.8 164.4,108 160.9,113.8 C155.2,123.3 148.7,129.3 141.4,131.7 C139.6,132.1 137.8,132.6 136,133 C133.8,133.6 132.2,134.4 131.3,135.6 L131.3,135.7 C131.3,136.5 132.4,137.4 134.5,138.3 C136.6,139.2 139.1,139.6 142,139.6 C145.7,139.6 150.2,139.2 155.5,138.5 C160.8,137.7 164.3,137.4 165.8,137.4 C169.8,137.4 171.8,139.3 171.8,143.2 C171.8,145.4 169.9,147.4 166.1,149.1 C166,149.1 165,149.5 162.9,150.3 C162.3,150.6 162,150.8 162,151.1 C162,152 162.9,152.9 164.6,153.9 C166.7,154.8 168.7,155.6 170.9,156.5 C173.2,157.8 174.3,159.4 174.3,161.6 L174.3,161.6 Z" id="XMLID_35_" fill="#3D325A" sketch:type="MSShapeGroup"></path>
            <rect id="Rectangle-path" sketch:type="MSShapeGroup" x="0" y="0" width="244" height="255"></rect>
        </g>
    </g>
</svg>